<mxfile host="app.diagrams.net" modified="2023-04-05T12:07:46.042Z" agent="Mozilla/5.0 (Windows NT 10.0; Win64; x64) AppleWebKit/537.36 (KHTML, like Gecko) Chrome/112.0.0.0 Safari/537.36" etag="DjEFUmB4W2sJZLD8aEig" version="21.1.4" type="github">
  <diagram id="C5RBs43oDa-KdzZeNtuy" name="Page-1">
    <mxGraphModel dx="880" dy="484" grid="1" gridSize="10" guides="1" tooltips="1" connect="1" arrows="1" fold="1" page="1" pageScale="1" pageWidth="827" pageHeight="1169" math="0" shadow="0">
      <root>
        <mxCell id="WIyWlLk6GJQsqaUBKTNV-0" />
        <mxCell id="WIyWlLk6GJQsqaUBKTNV-1" parent="WIyWlLk6GJQsqaUBKTNV-0" />
        <mxCell id="WIyWlLk6GJQsqaUBKTNV-2" value="" style="rounded=0;html=1;jettySize=auto;orthogonalLoop=1;fontSize=11;endArrow=block;endFill=0;endSize=8;strokeWidth=1;shadow=0;labelBackgroundColor=none;edgeStyle=orthogonalEdgeStyle;" parent="WIyWlLk6GJQsqaUBKTNV-1" source="WIyWlLk6GJQsqaUBKTNV-3" edge="1">
          <mxGeometry relative="1" as="geometry">
            <mxPoint x="124" y="170" as="targetPoint" />
          </mxGeometry>
        </mxCell>
        <mxCell id="au4sAqK347KHXuccERVV-2" value="" style="edgeStyle=orthogonalEdgeStyle;rounded=0;orthogonalLoop=1;jettySize=auto;html=1;" edge="1" parent="WIyWlLk6GJQsqaUBKTNV-1" source="WIyWlLk6GJQsqaUBKTNV-3" target="au4sAqK347KHXuccERVV-1">
          <mxGeometry relative="1" as="geometry">
            <Array as="points">
              <mxPoint x="124" y="200" />
            </Array>
          </mxGeometry>
        </mxCell>
        <mxCell id="WIyWlLk6GJQsqaUBKTNV-3" value="Create file of .sh" style="rounded=1;whiteSpace=wrap;html=1;fontSize=12;glass=0;strokeWidth=1;shadow=0;" parent="WIyWlLk6GJQsqaUBKTNV-1" vertex="1">
          <mxGeometry x="64" y="80" width="120" height="40" as="geometry" />
        </mxCell>
        <mxCell id="WIyWlLk6GJQsqaUBKTNV-8" value="No" style="rounded=0;html=1;jettySize=auto;orthogonalLoop=1;fontSize=11;endArrow=block;endFill=0;endSize=8;strokeWidth=1;shadow=0;labelBackgroundColor=none;edgeStyle=orthogonalEdgeStyle;" parent="WIyWlLk6GJQsqaUBKTNV-1" edge="1">
          <mxGeometry x="0.3333" y="20" relative="1" as="geometry">
            <mxPoint as="offset" />
            <mxPoint x="117" y="538" as="sourcePoint" />
            <mxPoint x="117" y="598" as="targetPoint" />
          </mxGeometry>
        </mxCell>
        <mxCell id="WIyWlLk6GJQsqaUBKTNV-9" value="Yes" style="edgeStyle=orthogonalEdgeStyle;rounded=0;html=1;jettySize=auto;orthogonalLoop=1;fontSize=11;endArrow=block;endFill=0;endSize=8;strokeWidth=1;shadow=0;labelBackgroundColor=none;" parent="WIyWlLk6GJQsqaUBKTNV-1" edge="1">
          <mxGeometry y="10" relative="1" as="geometry">
            <mxPoint as="offset" />
            <mxPoint x="171" y="485" as="sourcePoint" />
            <mxPoint x="221" y="485" as="targetPoint" />
          </mxGeometry>
        </mxCell>
        <mxCell id="au4sAqK347KHXuccERVV-0" value="Add Content to it&lt;br&gt;including shebang" style="rounded=1;whiteSpace=wrap;html=1;" vertex="1" parent="WIyWlLk6GJQsqaUBKTNV-1">
          <mxGeometry x="54" y="170" width="140" height="60" as="geometry" />
        </mxCell>
        <mxCell id="au4sAqK347KHXuccERVV-20" value="" style="edgeStyle=orthogonalEdgeStyle;rounded=0;orthogonalLoop=1;jettySize=auto;html=1;" edge="1" parent="WIyWlLk6GJQsqaUBKTNV-1" source="au4sAqK347KHXuccERVV-1" target="au4sAqK347KHXuccERVV-19">
          <mxGeometry relative="1" as="geometry" />
        </mxCell>
        <mxCell id="au4sAqK347KHXuccERVV-1" value="Move to&amp;nbsp;/usr/local/bin/internsctl" style="rounded=1;whiteSpace=wrap;html=1;fontSize=12;glass=0;strokeWidth=1;shadow=0;" vertex="1" parent="WIyWlLk6GJQsqaUBKTNV-1">
          <mxGeometry x="4" y="280" width="230" height="40" as="geometry" />
        </mxCell>
        <mxCell id="au4sAqK347KHXuccERVV-22" value="" style="edgeStyle=orthogonalEdgeStyle;rounded=0;orthogonalLoop=1;jettySize=auto;html=1;" edge="1" parent="WIyWlLk6GJQsqaUBKTNV-1" source="au4sAqK347KHXuccERVV-19" target="au4sAqK347KHXuccERVV-21">
          <mxGeometry relative="1" as="geometry" />
        </mxCell>
        <mxCell id="au4sAqK347KHXuccERVV-31" value="" style="edgeStyle=orthogonalEdgeStyle;rounded=0;orthogonalLoop=1;jettySize=auto;html=1;" edge="1" parent="WIyWlLk6GJQsqaUBKTNV-1" source="au4sAqK347KHXuccERVV-19" target="au4sAqK347KHXuccERVV-30">
          <mxGeometry relative="1" as="geometry" />
        </mxCell>
        <mxCell id="au4sAqK347KHXuccERVV-19" value="Adding --help" style="whiteSpace=wrap;html=1;rounded=1;glass=0;strokeWidth=1;shadow=0;" vertex="1" parent="WIyWlLk6GJQsqaUBKTNV-1">
          <mxGeometry x="59" y="340" width="120" height="60" as="geometry" />
        </mxCell>
        <mxCell id="au4sAqK347KHXuccERVV-27" value="" style="edgeStyle=orthogonalEdgeStyle;rounded=0;orthogonalLoop=1;jettySize=auto;html=1;" edge="1" parent="WIyWlLk6GJQsqaUBKTNV-1" source="au4sAqK347KHXuccERVV-21" target="au4sAqK347KHXuccERVV-26">
          <mxGeometry relative="1" as="geometry" />
        </mxCell>
        <mxCell id="au4sAqK347KHXuccERVV-21" value="arg 1 = --help" style="rhombus;whiteSpace=wrap;html=1;rounded=1;glass=0;strokeWidth=1;shadow=0;" vertex="1" parent="WIyWlLk6GJQsqaUBKTNV-1">
          <mxGeometry x="62.75" y="430" width="112.5" height="110" as="geometry" />
        </mxCell>
        <mxCell id="au4sAqK347KHXuccERVV-23" value="Yes" style="edgeStyle=orthogonalEdgeStyle;rounded=0;html=1;jettySize=auto;orthogonalLoop=1;fontSize=11;endArrow=block;endFill=0;endSize=8;strokeWidth=1;shadow=0;labelBackgroundColor=none;" edge="1" parent="WIyWlLk6GJQsqaUBKTNV-1">
          <mxGeometry y="10" relative="1" as="geometry">
            <mxPoint as="offset" />
            <mxPoint x="181" y="685" as="sourcePoint" />
            <mxPoint x="231" y="685" as="targetPoint" />
          </mxGeometry>
        </mxCell>
        <mxCell id="au4sAqK347KHXuccERVV-24" value="Invalid syntax" style="whiteSpace=wrap;html=1;rounded=1;glass=0;strokeWidth=1;shadow=0;" vertex="1" parent="WIyWlLk6GJQsqaUBKTNV-1">
          <mxGeometry x="59" y="600" width="120" height="60" as="geometry" />
        </mxCell>
        <mxCell id="au4sAqK347KHXuccERVV-26" value="Print Help" style="whiteSpace=wrap;html=1;rounded=1;glass=0;strokeWidth=1;shadow=0;" vertex="1" parent="WIyWlLk6GJQsqaUBKTNV-1">
          <mxGeometry x="224" y="455" width="120" height="60" as="geometry" />
        </mxCell>
        <mxCell id="au4sAqK347KHXuccERVV-33" value="" style="edgeStyle=orthogonalEdgeStyle;rounded=0;orthogonalLoop=1;jettySize=auto;html=1;" edge="1" parent="WIyWlLk6GJQsqaUBKTNV-1" source="au4sAqK347KHXuccERVV-30" target="au4sAqK347KHXuccERVV-32">
          <mxGeometry relative="1" as="geometry" />
        </mxCell>
        <mxCell id="au4sAqK347KHXuccERVV-30" value="Adding --version" style="whiteSpace=wrap;html=1;rounded=1;glass=0;strokeWidth=1;shadow=0;" vertex="1" parent="WIyWlLk6GJQsqaUBKTNV-1">
          <mxGeometry x="484" y="340" width="120" height="60" as="geometry" />
        </mxCell>
        <mxCell id="au4sAqK347KHXuccERVV-32" value="arg 1 = --version" style="rhombus;whiteSpace=wrap;html=1;rounded=1;glass=0;strokeWidth=1;shadow=0;" vertex="1" parent="WIyWlLk6GJQsqaUBKTNV-1">
          <mxGeometry x="479" y="435" width="130" height="100" as="geometry" />
        </mxCell>
        <mxCell id="au4sAqK347KHXuccERVV-34" value="Yes" style="edgeStyle=orthogonalEdgeStyle;rounded=0;html=1;jettySize=auto;orthogonalLoop=1;fontSize=11;endArrow=block;endFill=0;endSize=8;strokeWidth=1;shadow=0;labelBackgroundColor=none;" edge="1" parent="WIyWlLk6GJQsqaUBKTNV-1" target="au4sAqK347KHXuccERVV-51">
          <mxGeometry y="10" relative="1" as="geometry">
            <mxPoint as="offset" />
            <mxPoint x="604" y="485" as="sourcePoint" />
            <mxPoint x="654" y="485" as="targetPoint" />
          </mxGeometry>
        </mxCell>
        <mxCell id="au4sAqK347KHXuccERVV-36" value="No" style="rounded=0;html=1;jettySize=auto;orthogonalLoop=1;fontSize=11;endArrow=block;endFill=0;endSize=8;strokeWidth=1;shadow=0;labelBackgroundColor=none;edgeStyle=orthogonalEdgeStyle;" edge="1" parent="WIyWlLk6GJQsqaUBKTNV-1" target="au4sAqK347KHXuccERVV-50">
          <mxGeometry x="0.3333" y="20" relative="1" as="geometry">
            <mxPoint as="offset" />
            <mxPoint x="544" y="532" as="sourcePoint" />
            <mxPoint x="544" y="592" as="targetPoint" />
          </mxGeometry>
        </mxCell>
        <mxCell id="au4sAqK347KHXuccERVV-50" value="Invalid synatx" style="rounded=1;whiteSpace=wrap;html=1;" vertex="1" parent="WIyWlLk6GJQsqaUBKTNV-1">
          <mxGeometry x="484" y="562" width="120" height="60" as="geometry" />
        </mxCell>
        <mxCell id="au4sAqK347KHXuccERVV-51" value="Print version" style="rounded=1;whiteSpace=wrap;html=1;" vertex="1" parent="WIyWlLk6GJQsqaUBKTNV-1">
          <mxGeometry x="674" y="455" width="120" height="60" as="geometry" />
        </mxCell>
        <mxCell id="au4sAqK347KHXuccERVV-54" value="" style="edgeStyle=orthogonalEdgeStyle;rounded=0;orthogonalLoop=1;jettySize=auto;html=1;" edge="1" parent="WIyWlLk6GJQsqaUBKTNV-1" source="au4sAqK347KHXuccERVV-52" target="au4sAqK347KHXuccERVV-53">
          <mxGeometry relative="1" as="geometry" />
        </mxCell>
        <mxCell id="au4sAqK347KHXuccERVV-52" value="Cpu information" style="rounded=1;whiteSpace=wrap;html=1;" vertex="1" parent="WIyWlLk6GJQsqaUBKTNV-1">
          <mxGeometry x="320" y="700" width="120" height="60" as="geometry" />
        </mxCell>
        <mxCell id="au4sAqK347KHXuccERVV-53" value="arg 1 = cpu" style="rhombus;whiteSpace=wrap;html=1;rounded=1;" vertex="1" parent="WIyWlLk6GJQsqaUBKTNV-1">
          <mxGeometry x="340" y="790" width="80" height="80" as="geometry" />
        </mxCell>
        <mxCell id="au4sAqK347KHXuccERVV-55" value="arg 2 = getinfo" style="rhombus;whiteSpace=wrap;html=1;rounded=1;" vertex="1" parent="WIyWlLk6GJQsqaUBKTNV-1">
          <mxGeometry x="460" y="790" width="110" height="80" as="geometry" />
        </mxCell>
        <mxCell id="au4sAqK347KHXuccERVV-57" value="Yes" style="edgeStyle=orthogonalEdgeStyle;rounded=0;html=1;jettySize=auto;orthogonalLoop=1;fontSize=11;endArrow=block;endFill=0;endSize=8;strokeWidth=1;shadow=0;labelBackgroundColor=none;" edge="1" parent="WIyWlLk6GJQsqaUBKTNV-1">
          <mxGeometry y="10" relative="1" as="geometry">
            <mxPoint as="offset" />
            <mxPoint x="417" y="829" as="sourcePoint" />
            <mxPoint x="467" y="829" as="targetPoint" />
          </mxGeometry>
        </mxCell>
        <mxCell id="au4sAqK347KHXuccERVV-58" value="No" style="rounded=0;html=1;jettySize=auto;orthogonalLoop=1;fontSize=11;endArrow=block;endFill=0;endSize=8;strokeWidth=1;shadow=0;labelBackgroundColor=none;edgeStyle=orthogonalEdgeStyle;" edge="1" parent="WIyWlLk6GJQsqaUBKTNV-1">
          <mxGeometry x="0.3333" y="20" relative="1" as="geometry">
            <mxPoint as="offset" />
            <mxPoint x="516" y="867" as="sourcePoint" />
            <mxPoint x="516" y="927" as="targetPoint" />
          </mxGeometry>
        </mxCell>
        <mxCell id="au4sAqK347KHXuccERVV-59" value="Print Cpu info" style="rounded=1;whiteSpace=wrap;html=1;" vertex="1" parent="WIyWlLk6GJQsqaUBKTNV-1">
          <mxGeometry x="467" y="927" width="100" height="40" as="geometry" />
        </mxCell>
        <mxCell id="au4sAqK347KHXuccERVV-60" value="No" style="rounded=0;html=1;jettySize=auto;orthogonalLoop=1;fontSize=11;endArrow=block;endFill=0;endSize=8;strokeWidth=1;shadow=0;labelBackgroundColor=none;edgeStyle=orthogonalEdgeStyle;" edge="1" parent="WIyWlLk6GJQsqaUBKTNV-1" target="au4sAqK347KHXuccERVV-61">
          <mxGeometry x="0.3333" y="20" relative="1" as="geometry">
            <mxPoint as="offset" />
            <mxPoint x="380" y="863" as="sourcePoint" />
            <mxPoint x="380" y="923" as="targetPoint" />
          </mxGeometry>
        </mxCell>
        <mxCell id="au4sAqK347KHXuccERVV-61" value="Error" style="rounded=1;whiteSpace=wrap;html=1;" vertex="1" parent="WIyWlLk6GJQsqaUBKTNV-1">
          <mxGeometry x="345" y="890" width="70" height="37" as="geometry" />
        </mxCell>
        <mxCell id="au4sAqK347KHXuccERVV-62" value="" style="edgeStyle=orthogonalEdgeStyle;rounded=0;orthogonalLoop=1;jettySize=auto;html=1;" edge="1" parent="WIyWlLk6GJQsqaUBKTNV-1" source="au4sAqK347KHXuccERVV-63" target="au4sAqK347KHXuccERVV-64">
          <mxGeometry relative="1" as="geometry" />
        </mxCell>
        <mxCell id="au4sAqK347KHXuccERVV-63" value="Memory information" style="rounded=1;whiteSpace=wrap;html=1;" vertex="1" parent="WIyWlLk6GJQsqaUBKTNV-1">
          <mxGeometry x="310" y="971" width="120" height="60" as="geometry" />
        </mxCell>
        <mxCell id="au4sAqK347KHXuccERVV-64" value="arg 1 = memory" style="rhombus;whiteSpace=wrap;html=1;rounded=1;" vertex="1" parent="WIyWlLk6GJQsqaUBKTNV-1">
          <mxGeometry x="330" y="1061" width="80" height="80" as="geometry" />
        </mxCell>
        <mxCell id="au4sAqK347KHXuccERVV-65" value="arg 2 = getinfo" style="rhombus;whiteSpace=wrap;html=1;rounded=1;" vertex="1" parent="WIyWlLk6GJQsqaUBKTNV-1">
          <mxGeometry x="450" y="1061" width="110" height="80" as="geometry" />
        </mxCell>
        <mxCell id="au4sAqK347KHXuccERVV-66" value="Yes" style="edgeStyle=orthogonalEdgeStyle;rounded=0;html=1;jettySize=auto;orthogonalLoop=1;fontSize=11;endArrow=block;endFill=0;endSize=8;strokeWidth=1;shadow=0;labelBackgroundColor=none;" edge="1" parent="WIyWlLk6GJQsqaUBKTNV-1">
          <mxGeometry y="10" relative="1" as="geometry">
            <mxPoint as="offset" />
            <mxPoint x="407" y="1100" as="sourcePoint" />
            <mxPoint x="457" y="1100" as="targetPoint" />
          </mxGeometry>
        </mxCell>
        <mxCell id="au4sAqK347KHXuccERVV-67" value="No" style="rounded=0;html=1;jettySize=auto;orthogonalLoop=1;fontSize=11;endArrow=block;endFill=0;endSize=8;strokeWidth=1;shadow=0;labelBackgroundColor=none;edgeStyle=orthogonalEdgeStyle;" edge="1" parent="WIyWlLk6GJQsqaUBKTNV-1">
          <mxGeometry x="0.3333" y="20" relative="1" as="geometry">
            <mxPoint as="offset" />
            <mxPoint x="506" y="1138" as="sourcePoint" />
            <mxPoint x="506" y="1198" as="targetPoint" />
          </mxGeometry>
        </mxCell>
        <mxCell id="au4sAqK347KHXuccERVV-68" value="Print Memory info" style="rounded=1;whiteSpace=wrap;html=1;" vertex="1" parent="WIyWlLk6GJQsqaUBKTNV-1">
          <mxGeometry x="457" y="1198" width="100" height="40" as="geometry" />
        </mxCell>
        <mxCell id="au4sAqK347KHXuccERVV-69" value="No" style="rounded=0;html=1;jettySize=auto;orthogonalLoop=1;fontSize=11;endArrow=block;endFill=0;endSize=8;strokeWidth=1;shadow=0;labelBackgroundColor=none;edgeStyle=orthogonalEdgeStyle;" edge="1" parent="WIyWlLk6GJQsqaUBKTNV-1" target="au4sAqK347KHXuccERVV-70">
          <mxGeometry x="0.3333" y="20" relative="1" as="geometry">
            <mxPoint as="offset" />
            <mxPoint x="370" y="1134" as="sourcePoint" />
            <mxPoint x="370" y="1194" as="targetPoint" />
          </mxGeometry>
        </mxCell>
        <mxCell id="au4sAqK347KHXuccERVV-70" value="Error" style="rounded=1;whiteSpace=wrap;html=1;" vertex="1" parent="WIyWlLk6GJQsqaUBKTNV-1">
          <mxGeometry x="335" y="1169" width="70" height="37" as="geometry" />
        </mxCell>
        <mxCell id="au4sAqK347KHXuccERVV-73" value="" style="edgeStyle=orthogonalEdgeStyle;rounded=0;orthogonalLoop=1;jettySize=auto;html=1;" edge="1" parent="WIyWlLk6GJQsqaUBKTNV-1" source="au4sAqK347KHXuccERVV-71" target="au4sAqK347KHXuccERVV-72">
          <mxGeometry relative="1" as="geometry" />
        </mxCell>
        <mxCell id="au4sAqK347KHXuccERVV-71" value="Get file info" style="rounded=1;whiteSpace=wrap;html=1;" vertex="1" parent="WIyWlLk6GJQsqaUBKTNV-1">
          <mxGeometry x="300" y="1260" width="120" height="60" as="geometry" />
        </mxCell>
        <mxCell id="au4sAqK347KHXuccERVV-79" value="" style="edgeStyle=orthogonalEdgeStyle;rounded=0;orthogonalLoop=1;jettySize=auto;html=1;" edge="1" parent="WIyWlLk6GJQsqaUBKTNV-1" source="au4sAqK347KHXuccERVV-72" target="au4sAqK347KHXuccERVV-75">
          <mxGeometry relative="1" as="geometry" />
        </mxCell>
        <mxCell id="au4sAqK347KHXuccERVV-72" value="arg 1 is file" style="rhombus;whiteSpace=wrap;html=1;rounded=1;" vertex="1" parent="WIyWlLk6GJQsqaUBKTNV-1">
          <mxGeometry x="320" y="1390" width="80" height="80" as="geometry" />
        </mxCell>
        <mxCell id="au4sAqK347KHXuccERVV-74" value="Yes" style="edgeStyle=orthogonalEdgeStyle;rounded=0;html=1;jettySize=auto;orthogonalLoop=1;fontSize=11;endArrow=block;endFill=0;endSize=8;strokeWidth=1;shadow=0;labelBackgroundColor=none;" edge="1" parent="WIyWlLk6GJQsqaUBKTNV-1" target="au4sAqK347KHXuccERVV-75">
          <mxGeometry y="10" relative="1" as="geometry">
            <mxPoint as="offset" />
            <mxPoint x="399" y="1430" as="sourcePoint" />
            <mxPoint x="449" y="1430" as="targetPoint" />
          </mxGeometry>
        </mxCell>
        <mxCell id="au4sAqK347KHXuccERVV-75" value="stat &amp;lt;filename&amp;gt;" style="rounded=1;whiteSpace=wrap;html=1;" vertex="1" parent="WIyWlLk6GJQsqaUBKTNV-1">
          <mxGeometry x="440" y="1400" width="120" height="60" as="geometry" />
        </mxCell>
        <mxCell id="au4sAqK347KHXuccERVV-76" value="No" style="rounded=0;html=1;jettySize=auto;orthogonalLoop=1;fontSize=11;endArrow=block;endFill=0;endSize=8;strokeWidth=1;shadow=0;labelBackgroundColor=none;edgeStyle=orthogonalEdgeStyle;" edge="1" parent="WIyWlLk6GJQsqaUBKTNV-1">
          <mxGeometry x="0.3333" y="20" relative="1" as="geometry">
            <mxPoint as="offset" />
            <mxPoint x="360" y="1466" as="sourcePoint" />
            <mxPoint x="360" y="1501" as="targetPoint" />
          </mxGeometry>
        </mxCell>
        <mxCell id="au4sAqK347KHXuccERVV-78" value="arg 1&amp;nbsp; =size" style="rhombus;whiteSpace=wrap;html=1;rounded=1;" vertex="1" parent="WIyWlLk6GJQsqaUBKTNV-1">
          <mxGeometry x="320" y="1500" width="80" height="80" as="geometry" />
        </mxCell>
        <mxCell id="au4sAqK347KHXuccERVV-80" value="Yes" style="edgeStyle=orthogonalEdgeStyle;rounded=0;html=1;jettySize=auto;orthogonalLoop=1;fontSize=11;endArrow=block;endFill=0;endSize=8;strokeWidth=1;shadow=0;labelBackgroundColor=none;" edge="1" parent="WIyWlLk6GJQsqaUBKTNV-1">
          <mxGeometry y="10" relative="1" as="geometry">
            <mxPoint as="offset" />
            <mxPoint x="398" y="1540" as="sourcePoint" />
            <mxPoint x="439" y="1540" as="targetPoint" />
          </mxGeometry>
        </mxCell>
        <mxCell id="au4sAqK347KHXuccERVV-81" value="Size" style="rounded=1;whiteSpace=wrap;html=1;" vertex="1" parent="WIyWlLk6GJQsqaUBKTNV-1">
          <mxGeometry x="440" y="1510" width="120" height="60" as="geometry" />
        </mxCell>
        <mxCell id="au4sAqK347KHXuccERVV-82" value="No" style="rounded=0;html=1;jettySize=auto;orthogonalLoop=1;fontSize=11;endArrow=block;endFill=0;endSize=8;strokeWidth=1;shadow=0;labelBackgroundColor=none;edgeStyle=orthogonalEdgeStyle;" edge="1" parent="WIyWlLk6GJQsqaUBKTNV-1">
          <mxGeometry x="0.3333" y="20" relative="1" as="geometry">
            <mxPoint as="offset" />
            <mxPoint x="360" y="1576" as="sourcePoint" />
            <mxPoint x="360" y="1611" as="targetPoint" />
          </mxGeometry>
        </mxCell>
        <mxCell id="au4sAqK347KHXuccERVV-83" value="arg 1&amp;nbsp; = permission" style="rhombus;whiteSpace=wrap;html=1;rounded=1;" vertex="1" parent="WIyWlLk6GJQsqaUBKTNV-1">
          <mxGeometry x="315" y="1608" width="90" height="82" as="geometry" />
        </mxCell>
        <mxCell id="au4sAqK347KHXuccERVV-84" value="Yes" style="edgeStyle=orthogonalEdgeStyle;rounded=0;html=1;jettySize=auto;orthogonalLoop=1;fontSize=11;endArrow=block;endFill=0;endSize=8;strokeWidth=1;shadow=0;labelBackgroundColor=none;" edge="1" parent="WIyWlLk6GJQsqaUBKTNV-1">
          <mxGeometry y="10" relative="1" as="geometry">
            <mxPoint as="offset" />
            <mxPoint x="398" y="1648" as="sourcePoint" />
            <mxPoint x="439" y="1648" as="targetPoint" />
          </mxGeometry>
        </mxCell>
        <mxCell id="au4sAqK347KHXuccERVV-85" value="Permission" style="rounded=1;whiteSpace=wrap;html=1;" vertex="1" parent="WIyWlLk6GJQsqaUBKTNV-1">
          <mxGeometry x="440" y="1618" width="120" height="60" as="geometry" />
        </mxCell>
        <mxCell id="au4sAqK347KHXuccERVV-86" value="No" style="rounded=0;html=1;jettySize=auto;orthogonalLoop=1;fontSize=11;endArrow=block;endFill=0;endSize=8;strokeWidth=1;shadow=0;labelBackgroundColor=none;edgeStyle=orthogonalEdgeStyle;" edge="1" parent="WIyWlLk6GJQsqaUBKTNV-1">
          <mxGeometry x="0.3333" y="20" relative="1" as="geometry">
            <mxPoint as="offset" />
            <mxPoint x="360" y="1684" as="sourcePoint" />
            <mxPoint x="360" y="1719" as="targetPoint" />
          </mxGeometry>
        </mxCell>
        <mxCell id="au4sAqK347KHXuccERVV-87" value="arg 1&amp;nbsp; = owner" style="rhombus;whiteSpace=wrap;html=1;rounded=1;" vertex="1" parent="WIyWlLk6GJQsqaUBKTNV-1">
          <mxGeometry x="316" y="1716" width="90" height="82" as="geometry" />
        </mxCell>
        <mxCell id="au4sAqK347KHXuccERVV-88" value="Yes" style="edgeStyle=orthogonalEdgeStyle;rounded=0;html=1;jettySize=auto;orthogonalLoop=1;fontSize=11;endArrow=block;endFill=0;endSize=8;strokeWidth=1;shadow=0;labelBackgroundColor=none;" edge="1" parent="WIyWlLk6GJQsqaUBKTNV-1">
          <mxGeometry y="10" relative="1" as="geometry">
            <mxPoint as="offset" />
            <mxPoint x="399" y="1756" as="sourcePoint" />
            <mxPoint x="440" y="1756" as="targetPoint" />
          </mxGeometry>
        </mxCell>
        <mxCell id="au4sAqK347KHXuccERVV-89" value="Owner" style="rounded=1;whiteSpace=wrap;html=1;" vertex="1" parent="WIyWlLk6GJQsqaUBKTNV-1">
          <mxGeometry x="441" y="1726" width="120" height="60" as="geometry" />
        </mxCell>
        <mxCell id="au4sAqK347KHXuccERVV-90" value="No" style="rounded=0;html=1;jettySize=auto;orthogonalLoop=1;fontSize=11;endArrow=block;endFill=0;endSize=8;strokeWidth=1;shadow=0;labelBackgroundColor=none;edgeStyle=orthogonalEdgeStyle;" edge="1" parent="WIyWlLk6GJQsqaUBKTNV-1">
          <mxGeometry x="0.3333" y="20" relative="1" as="geometry">
            <mxPoint as="offset" />
            <mxPoint x="361" y="1792" as="sourcePoint" />
            <mxPoint x="361" y="1827" as="targetPoint" />
          </mxGeometry>
        </mxCell>
        <mxCell id="au4sAqK347KHXuccERVV-91" value="arg 1 = last modified" style="rhombus;whiteSpace=wrap;html=1;rounded=1;" vertex="1" parent="WIyWlLk6GJQsqaUBKTNV-1">
          <mxGeometry x="316" y="1825" width="90" height="82" as="geometry" />
        </mxCell>
        <mxCell id="au4sAqK347KHXuccERVV-92" value="Yes" style="edgeStyle=orthogonalEdgeStyle;rounded=0;html=1;jettySize=auto;orthogonalLoop=1;fontSize=11;endArrow=block;endFill=0;endSize=8;strokeWidth=1;shadow=0;labelBackgroundColor=none;" edge="1" parent="WIyWlLk6GJQsqaUBKTNV-1">
          <mxGeometry y="10" relative="1" as="geometry">
            <mxPoint as="offset" />
            <mxPoint x="399" y="1865" as="sourcePoint" />
            <mxPoint x="440" y="1865" as="targetPoint" />
          </mxGeometry>
        </mxCell>
        <mxCell id="au4sAqK347KHXuccERVV-93" value="Last modifed date time" style="rounded=1;whiteSpace=wrap;html=1;" vertex="1" parent="WIyWlLk6GJQsqaUBKTNV-1">
          <mxGeometry x="441" y="1835" width="120" height="60" as="geometry" />
        </mxCell>
        <mxCell id="au4sAqK347KHXuccERVV-94" value="No" style="rounded=0;html=1;jettySize=auto;orthogonalLoop=1;fontSize=11;endArrow=block;endFill=0;endSize=8;strokeWidth=1;shadow=0;labelBackgroundColor=none;edgeStyle=orthogonalEdgeStyle;" edge="1" parent="WIyWlLk6GJQsqaUBKTNV-1">
          <mxGeometry x="0.3333" y="20" relative="1" as="geometry">
            <mxPoint as="offset" />
            <mxPoint x="361" y="1901" as="sourcePoint" />
            <mxPoint x="361" y="1936" as="targetPoint" />
          </mxGeometry>
        </mxCell>
        <mxCell id="au4sAqK347KHXuccERVV-95" value="Not a regular file" style="rounded=1;whiteSpace=wrap;html=1;" vertex="1" parent="WIyWlLk6GJQsqaUBKTNV-1">
          <mxGeometry x="300" y="1940" width="120" height="60" as="geometry" />
        </mxCell>
      </root>
    </mxGraphModel>
  </diagram>
</mxfile>
